<svg width="32" height="32" viewBox="0 0 32 32" fill="none" xmlns="http://www.w3.org/2000/svg">
  <rect width="32" height="32" rx="8" fill="#0A0A0F"/>
  <path fill-rule="evenodd" clip-rule="evenodd" d="M16 7C11.0294 7 7 11.0294 7 16C7 20.9706 11.0294 25 16 25C20.9706 25 25 20.9706 25 16C25 11.0294 20.9706 7 16 7ZM13 14C13 13.4477 13.4477 13 14 13H18C18.5523 13 19 13.4477 19 14V18C19 18.5523 18.5523 19 18 19H14C13.4477 19 13 18.5523 13 18V14Z" fill="#6366F1"/>
  <path d="M15 11.5C15 11.2239 15.2239 11 15.5 11H16.5C16.7761 11 17 11.2239 17 11.5V13H15V11.5Z" fill="#6366F1"/>
  <path d="M15 19H17V20.5C17 20.7761 16.7761 21 16.5 21H15.5C15.2239 21 15 20.7761 15 20.5V19Z" fill="#6366F1"/>
  <path d="M19 15H20.5C20.7761 15 21 15.2239 21 15.5V16.5C21 16.7761 20.7761 17 20.5 17H19V15Z" fill="#6366F1"/>
  <path d="M11.5 15C11.2239 15 11 15.2239 11 15.5V16.5C11 16.7761 11.2239 17 11.5 17H13V15H11.5Z" fill="#6366F1"/>
</svg> 